<mxfile host="app.diagrams.net" modified="2021-02-23T12:50:20.960Z" agent="5.0 (Windows NT 10.0; Win64; x64) AppleWebKit/537.36 (KHTML, like Gecko) Chrome/88.0.4324.190 Safari/537.36" etag="-Ii3ExJMighjcder4DbN" version="14.4.2" type="github">
  <diagram id="F8LXNOH87tb_o5sb2Eod" name="Page-1">
    <mxGraphModel dx="1422" dy="772" grid="1" gridSize="10" guides="1" tooltips="1" connect="1" arrows="1" fold="1" page="1" pageScale="1" pageWidth="827" pageHeight="1169" math="0" shadow="0">
      <root>
        <mxCell id="0" />
        <mxCell id="1" parent="0" />
        <mxCell id="N2bQK5kctctjES7UXnTX-23" value="" style="group" vertex="1" connectable="0" parent="1">
          <mxGeometry x="10" y="60" width="330" height="410" as="geometry" />
        </mxCell>
        <mxCell id="N2bQK5kctctjES7UXnTX-17" value="" style="rounded=0;whiteSpace=wrap;html=1;" vertex="1" parent="N2bQK5kctctjES7UXnTX-23">
          <mxGeometry width="330" height="410" as="geometry" />
        </mxCell>
        <mxCell id="N2bQK5kctctjES7UXnTX-21" value="tire: mysql" style="text;html=1;strokeColor=none;fillColor=none;align=center;verticalAlign=middle;whiteSpace=wrap;rounded=0;" vertex="1" parent="N2bQK5kctctjES7UXnTX-23">
          <mxGeometry width="70" height="20" as="geometry" />
        </mxCell>
        <mxCell id="N2bQK5kctctjES7UXnTX-1" value="" style="html=1;dashed=0;whitespace=wrap;fillColor=#2875E2;strokeColor=#ffffff;points=[[0.005,0.63,0],[0.1,0.2,0],[0.9,0.2,0],[0.5,0,0],[0.995,0.63,0],[0.72,0.99,0],[0.5,1,0],[0.28,0.99,0]];shape=mxgraph.kubernetes.icon;prIcon=pv" vertex="1" parent="1">
          <mxGeometry x="20" y="580" width="50" height="48" as="geometry" />
        </mxCell>
        <mxCell id="N2bQK5kctctjES7UXnTX-5" value="" style="group" vertex="1" connectable="0" parent="1">
          <mxGeometry x="90" y="90" width="160" height="112" as="geometry" />
        </mxCell>
        <mxCell id="N2bQK5kctctjES7UXnTX-3" value="" style="html=1;dashed=0;whitespace=wrap;fillColor=#2875E2;strokeColor=#ffffff;points=[[0.005,0.63,0],[0.1,0.2,0],[0.9,0.2,0],[0.5,0,0],[0.995,0.63,0],[0.72,0.99,0],[0.5,1,0],[0.28,0.99,0]];shape=mxgraph.kubernetes.icon;prIcon=svc" vertex="1" parent="N2bQK5kctctjES7UXnTX-5">
          <mxGeometry width="50" height="112" as="geometry" />
        </mxCell>
        <mxCell id="N2bQK5kctctjES7UXnTX-4" value="wordpress-mysql" style="text;html=1;strokeColor=none;fillColor=none;align=center;verticalAlign=middle;whiteSpace=wrap;rounded=0;" vertex="1" parent="N2bQK5kctctjES7UXnTX-5">
          <mxGeometry x="60" y="46" width="100" height="20" as="geometry" />
        </mxCell>
        <mxCell id="N2bQK5kctctjES7UXnTX-10" value="" style="group" vertex="1" connectable="0" parent="1">
          <mxGeometry x="90" y="202" width="170" height="48" as="geometry" />
        </mxCell>
        <mxCell id="N2bQK5kctctjES7UXnTX-7" value="" style="html=1;dashed=0;whitespace=wrap;fillColor=#2875E2;strokeColor=#ffffff;points=[[0.005,0.63,0],[0.1,0.2,0],[0.9,0.2,0],[0.5,0,0],[0.995,0.63,0],[0.72,0.99,0],[0.5,1,0],[0.28,0.99,0]];shape=mxgraph.kubernetes.icon;prIcon=deploy" vertex="1" parent="N2bQK5kctctjES7UXnTX-10">
          <mxGeometry width="50" height="48" as="geometry" />
        </mxCell>
        <mxCell id="N2bQK5kctctjES7UXnTX-8" value="wordpress-mysql" style="text;html=1;strokeColor=none;fillColor=none;align=center;verticalAlign=middle;whiteSpace=wrap;rounded=0;" vertex="1" parent="N2bQK5kctctjES7UXnTX-10">
          <mxGeometry x="60" y="14" width="110" height="20" as="geometry" />
        </mxCell>
        <mxCell id="N2bQK5kctctjES7UXnTX-11" value="" style="group" vertex="1" connectable="0" parent="1">
          <mxGeometry x="90" y="330" width="170" height="60" as="geometry" />
        </mxCell>
        <mxCell id="N2bQK5kctctjES7UXnTX-2" value="" style="html=1;dashed=0;whitespace=wrap;fillColor=#2875E2;strokeColor=#ffffff;points=[[0.005,0.63,0],[0.1,0.2,0],[0.9,0.2,0],[0.5,0,0],[0.995,0.63,0],[0.72,0.99,0],[0.5,1,0],[0.28,0.99,0]];shape=mxgraph.kubernetes.icon;prIcon=pvc" vertex="1" parent="N2bQK5kctctjES7UXnTX-11">
          <mxGeometry width="50" height="60" as="geometry" />
        </mxCell>
        <mxCell id="N2bQK5kctctjES7UXnTX-15" value="mysql-pv-claim" style="text;html=1;strokeColor=none;fillColor=none;align=center;verticalAlign=middle;whiteSpace=wrap;rounded=0;" vertex="1" parent="N2bQK5kctctjES7UXnTX-11">
          <mxGeometry x="80" y="20" width="90" height="20" as="geometry" />
        </mxCell>
        <mxCell id="N2bQK5kctctjES7UXnTX-16" value="" style="group" vertex="1" connectable="0" parent="1">
          <mxGeometry x="90" y="270" width="110" height="48" as="geometry" />
        </mxCell>
        <mxCell id="N2bQK5kctctjES7UXnTX-13" value="" style="html=1;dashed=0;whitespace=wrap;fillColor=#2875E2;strokeColor=#ffffff;points=[[0.005,0.63,0],[0.1,0.2,0],[0.9,0.2,0],[0.5,0,0],[0.995,0.63,0],[0.72,0.99,0],[0.5,1,0],[0.28,0.99,0]];shape=mxgraph.kubernetes.icon;prIcon=pod" vertex="1" parent="N2bQK5kctctjES7UXnTX-16">
          <mxGeometry width="50" height="48" as="geometry" />
        </mxCell>
        <mxCell id="N2bQK5kctctjES7UXnTX-14" value="mysql" style="text;html=1;strokeColor=none;fillColor=none;align=center;verticalAlign=middle;whiteSpace=wrap;rounded=0;" vertex="1" parent="N2bQK5kctctjES7UXnTX-16">
          <mxGeometry x="70" y="14" width="40" height="20" as="geometry" />
        </mxCell>
        <mxCell id="N2bQK5kctctjES7UXnTX-31" value="" style="group" vertex="1" connectable="0" parent="1">
          <mxGeometry x="430" y="50" width="330" height="410" as="geometry" />
        </mxCell>
        <mxCell id="N2bQK5kctctjES7UXnTX-34" value="" style="group" vertex="1" connectable="0" parent="N2bQK5kctctjES7UXnTX-31">
          <mxGeometry x="20" y="20" width="330" height="410" as="geometry" />
        </mxCell>
        <mxCell id="N2bQK5kctctjES7UXnTX-32" value="" style="rounded=0;whiteSpace=wrap;html=1;" vertex="1" parent="N2bQK5kctctjES7UXnTX-34">
          <mxGeometry width="330" height="410" as="geometry" />
        </mxCell>
        <mxCell id="N2bQK5kctctjES7UXnTX-33" value="tire: frontend" style="text;html=1;strokeColor=none;fillColor=none;align=center;verticalAlign=middle;whiteSpace=wrap;rounded=0;" vertex="1" parent="N2bQK5kctctjES7UXnTX-34">
          <mxGeometry width="100" height="20" as="geometry" />
        </mxCell>
        <mxCell id="N2bQK5kctctjES7UXnTX-35" value="" style="group" vertex="1" connectable="0" parent="N2bQK5kctctjES7UXnTX-34">
          <mxGeometry x="70" y="260" width="170" height="60" as="geometry" />
        </mxCell>
        <mxCell id="N2bQK5kctctjES7UXnTX-36" value="" style="html=1;dashed=0;whitespace=wrap;fillColor=#2875E2;strokeColor=#ffffff;points=[[0.005,0.63,0],[0.1,0.2,0],[0.9,0.2,0],[0.5,0,0],[0.995,0.63,0],[0.72,0.99,0],[0.5,1,0],[0.28,0.99,0]];shape=mxgraph.kubernetes.icon;prIcon=pvc" vertex="1" parent="N2bQK5kctctjES7UXnTX-35">
          <mxGeometry width="50" height="60" as="geometry" />
        </mxCell>
        <mxCell id="N2bQK5kctctjES7UXnTX-43" value="" style="group" vertex="1" connectable="0" parent="N2bQK5kctctjES7UXnTX-34">
          <mxGeometry x="70" y="100" width="170" height="48" as="geometry" />
        </mxCell>
        <mxCell id="N2bQK5kctctjES7UXnTX-41" value="" style="html=1;dashed=0;whitespace=wrap;fillColor=#2875E2;strokeColor=#ffffff;points=[[0.005,0.63,0],[0.1,0.2,0],[0.9,0.2,0],[0.5,0,0],[0.995,0.63,0],[0.72,0.99,0],[0.5,1,0],[0.28,0.99,0]];shape=mxgraph.kubernetes.icon;prIcon=deploy" vertex="1" parent="N2bQK5kctctjES7UXnTX-43">
          <mxGeometry width="50" height="48" as="geometry" />
        </mxCell>
        <mxCell id="N2bQK5kctctjES7UXnTX-42" value="wordpress&lt;br&gt;" style="text;html=1;strokeColor=none;fillColor=none;align=center;verticalAlign=middle;whiteSpace=wrap;rounded=0;" vertex="1" parent="N2bQK5kctctjES7UXnTX-43">
          <mxGeometry x="60" y="14" width="60" height="20" as="geometry" />
        </mxCell>
        <mxCell id="N2bQK5kctctjES7UXnTX-44" value="" style="group" vertex="1" connectable="0" parent="N2bQK5kctctjES7UXnTX-34">
          <mxGeometry x="70" y="190" width="110" height="48" as="geometry" />
        </mxCell>
        <mxCell id="N2bQK5kctctjES7UXnTX-45" value="" style="html=1;dashed=0;whitespace=wrap;fillColor=#2875E2;strokeColor=#ffffff;points=[[0.005,0.63,0],[0.1,0.2,0],[0.9,0.2,0],[0.5,0,0],[0.995,0.63,0],[0.72,0.99,0],[0.5,1,0],[0.28,0.99,0]];shape=mxgraph.kubernetes.icon;prIcon=pod" vertex="1" parent="N2bQK5kctctjES7UXnTX-44">
          <mxGeometry width="50" height="48" as="geometry" />
        </mxCell>
        <mxCell id="N2bQK5kctctjES7UXnTX-46" value="wordpress" style="text;html=1;strokeColor=none;fillColor=none;align=center;verticalAlign=middle;whiteSpace=wrap;rounded=0;" vertex="1" parent="N2bQK5kctctjES7UXnTX-44">
          <mxGeometry x="70" y="14" width="40" height="20" as="geometry" />
        </mxCell>
        <mxCell id="N2bQK5kctctjES7UXnTX-37" value="wp-pv-claim" style="text;html=1;strokeColor=none;fillColor=none;align=center;verticalAlign=middle;whiteSpace=wrap;rounded=0;" vertex="1" parent="N2bQK5kctctjES7UXnTX-34">
          <mxGeometry x="130" y="280" width="70" height="20" as="geometry" />
        </mxCell>
        <mxCell id="N2bQK5kctctjES7UXnTX-29" value="" style="group" vertex="1" connectable="0" parent="N2bQK5kctctjES7UXnTX-31">
          <mxGeometry x="90" y="60" width="110" height="48" as="geometry" />
        </mxCell>
        <mxCell id="N2bQK5kctctjES7UXnTX-24" value="" style="html=1;dashed=0;whitespace=wrap;fillColor=#2875E2;strokeColor=#ffffff;points=[[0.005,0.63,0],[0.1,0.2,0],[0.9,0.2,0],[0.5,0,0],[0.995,0.63,0],[0.72,0.99,0],[0.5,1,0],[0.28,0.99,0]];shape=mxgraph.kubernetes.icon;prIcon=svc" vertex="1" parent="N2bQK5kctctjES7UXnTX-29">
          <mxGeometry width="50" height="48" as="geometry" />
        </mxCell>
        <mxCell id="N2bQK5kctctjES7UXnTX-25" value="wordpress" style="text;html=1;strokeColor=none;fillColor=none;align=center;verticalAlign=middle;whiteSpace=wrap;rounded=0;" vertex="1" parent="N2bQK5kctctjES7UXnTX-29">
          <mxGeometry x="70" y="14" width="40" height="20" as="geometry" />
        </mxCell>
      </root>
    </mxGraphModel>
  </diagram>
</mxfile>
